<svg height="148" viewBox="0 0 148 148" width="148" xmlns="http://www.w3.org/2000/svg" xmlns:xlink="http://www.w3.org/1999/xlink"><defs><filter id="a" height="566.7%" width="566.7%" x="-233.3%" y="-233.3%"><feOffset dx="0" dy="0" in="SourceAlpha" result="shadowOffsetOuter1"/><feGaussianBlur in="shadowOffsetOuter1" result="shadowBlurOuter1" stdDeviation="10"/><feColorMatrix in="shadowBlurOuter1" result="shadowMatrixOuter1" type="matrix" values="0 0 0 0 0.843137255   0 0 0 0 0.870588235   0 0 0 0 0.890196078  0 0 0 0.394219882 0"/><feOffset dx="0" dy="26" in="SourceAlpha" result="shadowOffsetOuter2"/><feGaussianBlur in="shadowOffsetOuter2" result="shadowBlurOuter2" stdDeviation="45"/><feColorMatrix in="shadowBlurOuter2" result="shadowMatrixOuter2" type="matrix" values="0 0 0 0 0.2   0 0 0 0 0.231372549   0 0 0 0 0.270588235  0 0 0 0.1 0"/><feMerge><feMergeNode in="shadowMatrixOuter1"/><feMergeNode in="shadowMatrixOuter2"/><feMergeNode in="SourceGraphic"/></feMerge></filter><circle id="b" cx="54" cy="54" r="54"/><path id="c" d="m24.5843304 58.4702488c-.5655 0-1.131-.1348179-1.638-.4167099-1.3585-.7476265-1.9565-2.2980324-1.417-3.6952361l6.7015-17.373125-6.617-1.7832731c-1.0595-.281892-1.898-1.0540309-2.223-2.0467809-.3185-.99275-.091-2.0774213.624-2.8740725l18.7005-20.9457994c.988-1.10918364 2.6715-1.3972037 4.017-.72924228 1.352.68021759 2.0215 2.16321448 1.5925 3.55429008l-4.693 15.3447284 6.838 1.844554c1.066.281892 1.9045 1.060159 2.223 2.0590371.325 1.0050062.078 2.0896775-.6435 2.8802006l-21.0015 23.1090139c-.6305.6986018-1.547 1.0724151-2.4635 1.0724151z"/><mask id="d" fill="#fff"><use fill="none" xlink:href="#b"/></mask><mask id="e" fill="#fff"><use fill="none" xlink:href="#c"/></mask></defs><g fill="none" fill-rule="evenodd" filter="url(#a)" transform="translate(20 20)"><use fill="#fff" xlink:href="#b"/><g fill="#ff7f45" mask="url(#d)"><path d="m0 0h108v108h-108z"/></g><g mask="url(#d)"><g transform="translate(21 21)"><use fill="#fd9843" fill-rule="nonzero" xlink:href="#c"/><g fill="none" fill-rule="evenodd" mask="url(#e)"><path d="m0 0h66v66h-66z" fill="#fff"/></g></g></g></g></svg>