<svg height="63" viewBox="0 0 86 63" width="86" xmlns="http://www.w3.org/2000/svg"><g fill="none" fill-rule="evenodd" transform="translate(-7 -18)"><path d="m0 0v121.95122h121.95122v-121.95122z"/><g fill-rule="evenodd"><path d="m8.53658537 79.2682927h19.28876463v-11.0376091l1.4429427-1.9953328-3.8396463-1.6012045-3.300428 2.7425918-3.6502449-.5879757-2.9978624-2.1546161-6.94352573 3.5965373z" fill="#ff7f45"/><path d="m73.2117543 80.4878049h18.2516603v-11.7153408l-2.1482273-1.9279994-6.9776028-2.2103184-3.5277603 4.1383178-4.9946328-4.1383178-3.0834841 1.6352896 2.480047 2.9822409z" fill="#f4fafa"/><g transform="translate(7.317073 18.292683)"><path d="m30.5068862 20.5248706h2.4435155v-3.3722174l.7825891-2.9006714 2.7263323-.9115447c4.7970017-1.332726 8.4018558-1.332726 10.8145621 0s4.2291542 2.3635408 5.4493438 3.0924445v3.7282808h3.232398l1.1421311-2.2320081.5755959-16.47366638h-20.6160186c-4.916734.93054676-7.6092136 3.14400832-8.0774388 6.64038466-.4682251 3.49637632-.7023377 6.27537932-.7023377 8.33700902z" fill="#f4fafa"/><path d="m75.3153582 28.2207508c-2.9047732-1.4522199-8.3510146-1.4690597-8.5814358-1.4690597-.6905964 0-1.2504763.55988-1.2504763 1.2504764s.5598799 1.2504764 1.2504763 1.2504764c1.4053688.0001667 5.4857565.2165825 7.4630098 1.2051257.1795684.0898676.3703077.1322171.5582126.1322171.4586748 0 .900343-.2534299 1.1194265-.6914301.308951-.6177353.0585223-1.3688548-.5592131-1.6778058z" fill="#404f54" fill-rule="nonzero"/><path d="m81.5497332 46.0243664-5.1644674-1.4755621c-.2229182-.0636909-.3786442-.2701029-.3786442-.5020246v-1.7238233c.42016-.2911109.8209794-.6169017 1.1956221-.9805402 1.8156917-1.7620046 2.8155726-4.125405 2.8155726-6.6550353v-2.3787395l.4993569-.9985471c.5480421-1.0962509.8376524-2.3235518.8376524-3.5490187v-6.4441215c0-.6905964-.5598799-1.2504764-1.2504763-1.2504764h-12.0334175c-4.3756669 0-7.9356898 3.5600229-7.9356898 7.9356898v.0745284c0 1.0190549.2409251 2.0396103.6965987 2.9509575l.6404106 1.2808213v2.0424447c0 3.2368998 1.5951077 6.1411728 4.0111948 7.8888386l.0003334 1.8066883c0 .2786061 0 .3939834-1.03256.6890958l-2.51996.7199409-7.2896103-2.6506764c.0261766-.3439644-.0898676-.6937643-.3407965-.9573647l-2.3293874-2.4472656v-4.1082317c.2462605-.2029107.4890196-.4113234.7242759-.6317407 2.9386195-2.7543826 4.6239282-6.6431974 4.6239282-10.6692311v-3.2809166c.887338-1.9309022 1.3370093-3.9741806 1.3370093-6.0784823v-13.37009334c0-.69059641-.5598799-1.25047637-1.2504763-1.25047637h-18.7186309c-6.5875096 0-11.9467178 5.359375-11.9467178 11.94671781v2.6741854c0 2.1043016.4496713 4.14758 1.3370093 6.0784823v2.8229087c0 4.6744474 2.0784585 8.8857184 5.3482041 11.6621094v4.2049352l-2.3293874 2.4472656c-.2509289.2636004-.3669731.6134004-.3407965.9573647l-7.6937643 2.7975658c-.5575457.2027439-1.0755764.4773485-1.5459223.8099752l-1.2081269-.6040635c3.5963701-1.5654296 4.7356374-3.7671017 4.7903249-3.8764767.1760671-.3519674.1760671-.7664587 0-1.1184261-.9015101-1.8030202-1.0107183-5.1077791-1.0984184-7.763124-.0291778-.8840035-.056855-1.7191549-.1097085-2.4627716-.4263291-5.9979516-4.9860661-10.5211747-10.6065406-10.5211747-5.62047443 0-10.18037821 4.5230564-10.60654055 10.5211747-.05285347.7437834-.08053068 1.5789349-.10970846 2.463105-.08770008 2.6551782-.19707508 5.9596037-1.09841845 7.7626239-.17606707.3519674-.17606707.7664586 0 1.1184261.0546875.109375 1.19162062 2.3065453 4.79516006 3.873809l-3.35577839 1.6778059c-1.79401677.8976753-2.90844131 2.7008622-2.90844131 4.7064596v9.2383527c0 .6905964.55987995 1.2504763 1.25047637 1.2504763s1.25047637-.5598799 1.25047637-1.2504763v-9.2383527c0-1.052401.58472276-1.9985947 1.52591464-2.469274l4.17875857-2.089296 1.45355374 1.3813596c1.01638721.9658679 2.32021721 1.4485518 3.62454741 1.4485518 1.3039968 0 2.6084937-.4830173 3.6245475-1.4485518l1.453387-1.3811928 1.362519.6812595c-.6415777 1.0265577-1.0057164 2.2303496-1.0057164 3.49133v9.6244998c0 .6905964.5598799 1.2504764 1.2504763 1.2504764.6905965 0 1.2504764-.55988 1.2504764-1.2504764v-9.6244998c0-1.7166539 1.0839129-3.2642435 2.6973609-3.850967l8.1117569-2.9496237 3.3767864 5.0654297c.4316644.64758 1.1234279 1.0629049 1.8978896 1.1396008.0863663.0085032.1722323.0126715.2579316.0126715.6832603 0 1.3376763-.2689358 1.8268627-.7579554l2.0601181-2.0601182v13.0256289c0 .6905964.5598799 1.2504763 1.2504764 1.2504763.6905964 0 1.2504763-.5598799 1.2504763-1.2504763v-13.0256289l2.0601182 2.0601182c.4890196.4891863 1.1434356.7581221 1.8268626.7581221.0855326 0 .1715654-.0041682.2577649-.0126715.7746284-.0766959 1.4663919-.4920207 1.8980564-1.1396008l3.3769531-5.0652629 8.1115901 2.9496236c1.6132813.5867236 2.6973609 2.1343131 2.6973609 3.8509671v9.6244998c0 .6905964.55988 1.2504764 1.2504764 1.2504764s1.2504764-.55988 1.2504764-1.2504764v-9.6244998c0-1.7386624-.6907632-3.3692836-1.849538-4.575243l.3089511-.0882002c.3116187-.089034.7367806-.2109137 1.1636099-.4201601l3.1927163 3.1927163v11.5153868c0 .6905964.5598799 1.2504764 1.2504764 1.2504764.6905964 0 1.2504763-.55988 1.2504763-1.2504764v-11.5153868l3.1705412-3.1705412c.1685642.0856993.3456317.1580602.532036.2112472l5.1646341 1.4755621c1.1787824.3367949 2.0022628 1.4283775 2.0022628 2.6545112v10.3446075c0 .6905964.55988 1.2504764 1.2504764 1.2504764s1.2504764-.55988 1.2504764-1.2504764v-10.3446075c0-2.3372237-1.5692645-4.4178496-3.8161205-5.0599276zm-73.52751045-2.2086747c-2.33905773-.841654-3.51233803-1.9637481-4.0131955-2.5764815.34146341-.8926734.5628811-1.9150629.71277153-2.9943074.68959604 1.6534632 1.84453601 3.065001 3.30042397 4.0720513zm7.16356235 3.3842892c-1.066573 1.0133861-2.7373762 1.0132194-3.8036157-.0001667l-1.162943-1.1050876c.1962414-.3676401.3041158-.7844655.3041158-1.2211319v-1.3328411c.8723323.2726039 1.7996856.4196599 2.7607184.4196599.9598657 0 1.8867187-.147723 2.7605516-.4188262l-.0001667 1.3318407c0 .4368331.1077077.8538252.3041159 1.221632zm-1.901391-5.7405202c-3.73408922 0-6.77174642-3.0378239-6.77174642-6.7717463 0-.6905965-.55987996-1.2504764-1.25047638-1.2504764-.07002667 0-.13838605.0071694-.20524485.0183403.00366806-.107541.0071694-.2152487.01083746-.3217892.02784394-.8598276.0546875-1.6719703.10420636-2.368569.15972752-2.246856 1.05756955-4.3173114 2.52812977-5.8302211 1.4837319-1.5265815 3.46682066-2.3672351 5.58396056-2.3672351s4.1000619.8406536 5.5839606 2.3672351c1.4705602 1.5129097 2.3684022 3.5833651 2.5281297 5.8302211.0493521.696432.0763624 1.5084079.1047066 2.3680688.0025009.0738614.0050019.1487233.0075028.223085-1.3605183-2.0961319-3.461652-3.640887-6.1765196-4.5132194-2.5081221-.8058069-4.6652772-.7559546-4.7563119-.7536204-.3274581.0091702-.63824317.1462224-.86549641.3819789l-2.25619283 2.3398913c-.47934928.4971894-.46501048 1.2888244.03217892 1.7681736.49718941.4793493 1.28882432.4648438 1.76817359-.0321789l1.87738183-1.9469083c1.6167826.0790301 6.8182641.6839272 8.8412014 5.1384575-.5090272 3.2825838-3.3304354 5.7205125-6.6883812 5.7205125zm5.2608374 2.3603992.0001667-1.4914014c1.4547209-1.0015482 2.6113282-2.4104183 3.3014244-4.0763863.1498904 1.0767435.3711414 2.0967988.7119379 2.9874714-.4980231.6068979-1.6768055 1.7389958-4.013529 2.5803163zm12.0335842-20.2867282v-3.1025153c0-.1882384-.0425162-.3741425-.1243807-.5437071-.8046398-1.6663014-1.2126286-3.4343083-1.2126286-5.2550019v-2.6740187c0-5.20848416 4.2374476-9.44576503 9.4457651-9.44576503h17.4681545v12.11995043c0 1.8206936-.4079888 3.5887005-1.2126286 5.2550019-.0818645.1695646-.1243807.3554688-.1243807.5437072v3.560523c0 3.3864568-1.361352 6.5274867-3.8332937 8.844536-.3086176.2891102-.6289062.5602134-.9600324.8128097-.0073361.0050019-.0143388.010504-.0215082.0156726-2.3157155 1.7581698-5.1521294 2.612662-8.1142578 2.4207555-6.3425829-.4106564-11.3108089-5.9240901-11.3108089-12.5519483zm12.1199505 20.3357469-6.7717464-4.6287633v-2.3342226c1.7521675.9471942 3.7140816 1.5395865 5.8007098 1.674638.3296256.0213414.6572504.0318454.9838748.0318454 2.3910776 0 4.6922876-.571551 6.7589082-1.6564643v2.2842035zm28.0461843 3.7575982-2.8377478-2.837581c.0495189-.224919.0775296-.4711795.0773628-.742783l-.0001667-.527701c.7874667.2584318 1.6174495.4118235 2.4762767.4375.09637.0030011.1919064.004335.287943.004335.9490282 0 1.8753811-.143388 2.7570503-.4169922v.5035251c0 .2494284.0313453.4938548.0903678.7287777zm4.7156297-8.0787443c-1.3253382 1.2861566-3.0761719 1.9654154-4.9247094 1.9083936-3.6187119-.1085413-6.5626667-3.2959222-6.5626667-7.1048732v-2.3377239c0-.1942407-.0451839-.3856469-.1320503-.5592131l-.772461-1.5449218c-.2829411-.566049-.4324981-1.1996237-.4324981-1.8325315v-.0745284c0-2.9968083 2.4380955-5.434737 5.4347371-5.434737h10.7829411v5.1936452c0 .8393197-.1984089 1.6798066-.5737186 2.4305926l-.6312404 1.2624809c-.0868665.1737329-.1320503.3649724-.1320503.5592131v2.6740186c0 1.8473705-.7302782 3.5733613-2.0562834 4.8601849z" fill="#404f54" fill-rule="nonzero"/><path d="m37.6196646 48.6945503c-.0086699.00867-.0288443.0291778-.0696932.0248428-.0406821-.0040015-.0566882-.0278439-.0635242-.0381812l-3.8889815-5.8335556 1.2514768-1.315001 5.8997475 4.0327029z" fill="#1caba0"/><path d="m47.9110852 48.6815454c-.006836.0103372-.0228421.0341796-.0635242.0381812-.0408489.0051686-.0608565-.0163396-.0696932-.0248428l-3.1290254-3.1290254 5.8997475-4.0328696 1.2516435 1.3150009z" fill="#1caba0"/><g fill="#404f54" fill-rule="nonzero"><path d="m78.7671732 52.1555354c-.6905964 0-1.2504764.55988-1.2504764 1.2504764v8.0222228c0 .6905964.55988 1.2504763 1.2504764 1.2504763s1.2504764-.5598799 1.2504764-1.2504763v-8.0222228c0-.6904297-.55988-1.2504764-1.2504764-1.2504764z"/><path d="m6.59868045 53.8084985c-.69059642 0-1.25047637.5598799-1.25047637 1.2504763v6.3692598c0 .6905964.55987995 1.2504763 1.25047637 1.2504763s1.25047637-.5598799 1.25047637-1.2504763v-6.3692598c0-.6904296-.55987995-1.2504763-1.25047637-1.2504763z"/><path d="m52.9421684 15.0849133c-4.7294683-4.7294684-14.624738-3.8252906-18.6599418-3.2170589-1.2709842.191573-2.1933356 1.2671494-2.1933356 2.5574743v2.8807641c0 .6905964.55988 1.2504764 1.2504764 1.2504764s1.2504764-.55988 1.2504764-1.2504764v-2.8809308c0-.0425162.0280106-.0788634.0653582-.0845322 1.6117807-.2429259 4.8101658-.6177354 8.1239281-.3968179 3.8994856.2595989 6.7238949 1.2384718 8.394698 2.9094417.4883527.4883527 1.2801544.4883527 1.7683403 0 .4883528-.4883527.4883528-1.2801543 0-1.7683403z"/><path d="m27.99133 54.8297208c-.6905964 0-1.2504763.55988-1.2504763 1.2504764v5.3482041c0 .6905964.5598799 1.2504764 1.2504763 1.2504764s1.2504764-.55988 1.2504764-1.2504764v-5.3482041c0-.6904297-.55988-1.2504764-1.2504764-1.2504764z"/><path d="m57.4062024 54.8297208c-.6905965 0-1.2504764.55988-1.2504764 1.2504764v5.3482041c0 .6905964.5598799 1.2504764 1.2504764 1.2504764.6905964 0 1.2504763-.55988 1.2504763-1.2504764v-5.3482041c0-.6904297-.5598799-1.2504764-1.2504763-1.2504764z"/></g></g></g></g></svg>