<svg height="22" viewBox="0 0 22 22" width="22" xmlns="http://www.w3.org/2000/svg" xmlns:xlink="http://www.w3.org/1999/xlink"><defs><path id="a" d="m11 22c-6.07513225 0-11-4.9248678-11-11 0-6.07513225 4.92486775-11 11-11 6.0751322 0 11 4.92486775 11 11 0 6.0751322-4.9248678 11-11 11zm0-1.4666667c5.2651146 0 9.5333333-4.2682187 9.5333333-9.5333333 0-5.26511461-4.2682187-9.53333333-9.5333333-9.53333333-5.26511461 0-9.53333333 4.26821872-9.53333333 9.53333333 0 5.2651146 4.26821872 9.5333333 9.53333333 9.5333333zm-2.50066667-6.908 7.76599997-7.75866663 1.034 1.034-8.79999997 8.80000003-4.09933333-4.0993334 1.04133333-1.034z"/><mask id="b" fill="#fff"><use fill="#fff" fill-rule="evenodd" xlink:href="#a"/></mask></defs><g fill="none" fill-rule="evenodd"><use fill="#ea645a" fill-rule="nonzero" xlink:href="#a"/><g fill="#1caba0" fill-rule="evenodd" mask="url(#b)"><path d="m0 0h22v22h-22z"/></g></g></svg>