<svg height="69" viewBox="0 0 70 69" width="70" xmlns="http://www.w3.org/2000/svg"><g fill="none" fill-rule="evenodd"><circle cx="30.961539" cy="13.910256" fill="#ff7f45" r="13.012821"/><g fill-rule="nonzero"><path d="m57.764082 36.3142773c-.5625976 0-1.0186914.4560938-1.0186914 1.0186914 0 .7132618-.5802343 1.2934961-1.2934961 1.2934961-.713125 0-1.2934961-.5802343-1.2934961-1.2934961 0-.5627343-.4560937-1.0186914-1.0186914-1.0186914-.5625976 0-1.0186914.4560938-1.0186914 1.0186914 0 1.8366797 1.494336 3.330879 3.3308789 3.330879 1.836543 0 3.3308789-1.494336 3.3308789-3.330879 0-.562871-.4560937-1.0186914-1.0186914-1.0186914z" fill="#1caba0"/><path d="m67.3263281 36.4806641-2.8672656-.9184766c-.3672266-.1177148-.6566602-.4108398-.7741016-.7842188-.6042968-1.9213085-1.5162109-3.725039-2.7104492-5.361289-.5442773-.7458008-1.1495312-1.4579688-1.8107031-2.135957.4230078-1.8556836.6529687-3.9558204.6231641-5.7702149-.0426563-2.5956055-.5613672-4.1179687-1.5856641-4.6544531-.5516602-.2892969-2.2305664-1.168125-11.3178516 2.9916797-.2151953.0984375-.4161718.219707-.6022461.3586133-.6126367-.1646094-1.2388086-.3169141-1.8688086-.4536329-.0758789-.0165429-.154082-.0311718-.2305078-.0473046.7363672-1.6086329 1.1663477-3.3557618 1.2471485-5.1593555.0251562-.5621875-.4100196-1.0382422-.9722071-1.0632617-.5606836-.0278907-1.0382421.4098828-1.0632617.9720703-.1327539 2.9655664-1.3629492 5.7558594-3.4637695 7.8568164-1.2552149 1.2552148-2.7249414 2.1669922-4.2913281 2.7412109-2.7164649-.3811718-5.4833789-.3811718-8.1998438 0-1.5665234-.5742187-3.0361133-1.4859961-4.2913281-2.7412109-2.2413672-2.2413672-3.4758008-5.2214258-3.4758008-8.39125 0-3.1699609 1.2344336-6.14988282 3.4758008-8.39125001 2.2413672-2.24150391 5.2215625-3.4759375 8.39125-3.4759375s6.1498828 1.23443359 8.39125 3.4759375c.9007031.90070312 1.645 1.92855469 2.2122461 3.05470703.2530664.50257812.8657031.70492187 1.3681445.45171875.5025781-.25292969.7047852-.86556641.4517188-1.36800781-.6648633-1.32056641-1.5367188-2.52464844-2.5912305-3.57929688-2.6262305-2.62623047-6.1180273-4.07257812-9.8319922-4.07257812-3.7139648 0-7.2057617 1.44634765-9.8319922 4.07257812-2.6262304 2.62636719-4.0725781 6.11802732-4.0725781 9.83199222 0 3.7139648 1.4463477 7.2057617 4.0725781 9.8319922.7575586.7575586 1.5816992 1.4090234 2.453418 1.9548046.0002734 0 .0005469-.0001367.0008203-.0001367-.633418.1646094-1.2620508.3494532-1.8837109.5572657-.5336133.1784179-.821543.7555078-.643125 1.2892578.1782812.5336132.7556445.8215429 1.2891211.6432617 5.5557031-1.8573242 11.6752343-1.8573242 17.2309375 0 .1071875.0358203.2160156.0527734.3230664.0527734.4261523 0 .823457-.2696094.9660547-.6960351.1784179-.5336133-.1095118-1.1108399-.643125-1.2892578-.6216602-.2078125-1.250293-.392793-1.883711-.5572657.0002735 0 .0005469.0001367.0008203.0001367.8718555-.5457812 1.6958594-1.197246 2.453418-1.9548046.6701953-.6701954 1.2617773-1.4020508 1.7754297-2.1798438.2808203.0545508.5595898.1116992.8342578.1713086.3658594.0794336.7300781.1647461 1.0910156.2542969-.0113476.0442969-.0229687.088457-.0324023.1334375-.496836 2.3577148-.4645703 4.4429492.0958398 6.1974609.5036719 1.5770508 1.4127149 2.8546875 2.7015625 3.7976367 1.5190821 1.11125 3.3530274 1.5912696 5.0142969 1.5912696 1.250293 0 2.4029687-.2720703 3.2495312-.751543.9575782-.5423633 1.7598438-1.6851953 2.3949024-3.4010156.2935351.3426172.5717578.6935742.8339844 1.0528711 1.0632617 1.4566015 1.8749609 3.0619531 2.412539 4.7712109.3156836 1.0039258 1.0993555 1.7938867 2.0961719 2.1133984l2.8672656.9184766c.7523633.2410352 1.2578125.9335156 1.2578125 1.7234766v4.7543945c0 .7899609-.5054492 1.4824414-1.2578125 1.7234766l-4.6195898 1.479707c-.7391016.2369336-1.3645899.7448437-1.761211 1.4303516-1.8149414 3.1366015-4.6683984 5.732207-8.481621 7.7147656-.4405079.2292773-.7456641.6392969-.8375391 1.1251953l-1.4795703 7.8343945c-.0408789.2158789-.229961.3724219-.449668.3724219h-4.8107226c-.2197071 0-.4087891-.1566797-.449668-.3724219l-.8194922-4.3297461c-.1613281-.8518945-.9603125-1.4177734-1.8202734-1.2874804-2.0722461.3133593-4.2075196.4720898-6.346211.4720898-1.5911328 0-3.1618945-.0887305-4.6689453-.2638672-.8333008-.0958398-1.6095898.4722266-1.7653125 1.295l-.77875 4.1140039c-.0408789.2158789-.2299609.3724219-.449668.3724219h-4.8107226c-.219707 0-.4087891-.1566797-.4502149-.3757031l-1.4246093-7.3994922c-.0917383-.4767383-.3911524-.8821094-.8219532-1.112207-6.5001562-3.4700586-9.9358984-9.2674805-9.9358984-16.7651368 0-3.7882031.8287891-7.1379492 2.4632617-9.9565429 1.5252344-2.6303321 3.7529297-4.8051172 6.6211524-6.4641993.4869922-.2817773.6533789-.9049414.3717382-1.3920703-.2816406-.4869922-.9048046-.6531054-1.3919336-.3717382-5.561582 3.2172656-8.91597651 8.1807031-9.83951167 14.4848046v-.0001367c-.09802734-.0088867-.19619141-.0173633-.29394531-.0274805.01777344-.6801757-.10527344-1.3665039-.37324219-2.0325976-.59103515-1.4691797-1.80509765-2.5295703-3.093125-2.7014258-1.015-.1358984-1.98091797.2950391-2.65125 1.1807031-.97193359 1.284336-.81347656 2.3007032-.50955078 2.9271485.51310547 1.0572461 1.83203125 1.8050976 4.02076172 2.2752734-.06015625.0900977-.12632813.1806055-.19878906.2715234-1.29322266 1.6218946-2.81681641 1.9805079-3.80611328 2.0142774-.57914063.0195508-1.04289063.4845312-1.04289063 1.064082v.0049219c0 .5716211.45103516 1.037832 1.02210938 1.0639453.07314453.003418.14957031.0051953.22914062.0051953 1.25179687 0 3.26087891-.4616992 5.19107422-2.8820312.30474609-.3819922.55302734-.7850391.74388672-1.2014844.19222656.0217383.37693359.040332.55384765.0567383 0-.0004102 0-.0006836.00013672-.0010938-.03472656.5520703-.0540039 1.1122071-.0540039 1.6821875 0 4.2421094 1.01130859 8.0244336 3.00562499 11.2423828 1.8388672 2.9667969 4.4716602 5.3960157 7.827832 7.2228516l1.384961 7.1935938c.2227148 1.176875 1.2537109 2.0310937 2.4515039 2.0310937h4.8107226c1.197793 0 2.2287891-.8542187 2.4515039-2.0310937l.7041016-3.7198438c1.4623438.1549023 2.9763672.2333789 4.5069336.2333789 2.1 0 4.1975391-.1462891 6.2417578-.4350391l.7422461 3.9217774c.2228516 1.176875 1.2538477 2.030957 2.4515039 2.030957h4.8107227c1.1977929 0 2.228789-.8542187 2.4516406-2.0315039l1.4406055-7.6276758c4.0698437-2.1520898 7.137539-4.9791601 9.1196875-8.4047851.1428711-.2469141.3628515-.4280664.6193359-.5102344l4.6194531-1.479707c1.5991992-.5125586 2.6736719-1.9848828 2.6736719-3.6641992v-4.7543946c0-1.6791797-1.0744727-3.1515039-2.6736719-3.663789zm-9.7297265-12.1074024c-.3921094 3.3531641-1.4438868 6.2215235-2.5007227 6.8200781-1.2012109.6804493-3.9745508.811836-6.0567773-.7113476-2.0846875-1.5249609-2.7785352-4.2672656-2.0067578-7.9305078 0-.0001367 0-.0001367 0-.0001367.0775195-.3679102.3389257-.6861914.6991796-.8510743 5.1001563-2.3346093 8.0405664-3.0981836 9.1329493-3.0981836.1648828 0 .2876562.0173633.369414.0493555.328125.3497266.7585156 2.3377539.3627149 5.7218164zm-54.73630863 11.3104688c-.10541016-.2173828.14341797-.5995117.30119141-.8081446.25005859-.3303125.48042968-.3978515.65447265-.3978515.03677734 0 .07109375.0030078.10253906.0072461.46839844.0624804 1.12464844.5779101 1.47232422 1.4421093.08189453.2034375.18826172.5404493.21314453.9607227-1.4102539-.292168-2.50591796-.7133984-2.74367187-1.204082z" fill="#404f54"/><path d="m32.5278516 12.7527148v-3.64546871c1.2571289.08982422 1.7241601.66445313 2.1550976.66445313.5388086 0 .7902344-.68236328.7902344-1.02361328 0-.8800586-1.7241602-1.25712891-2.945332-1.29308594v-.48507812c0-.21546875-.2694727-.41302735-.5388086-.41302735-.3054297 0-.5208985.1975586-.5208985.41302735v.52076171c-1.7061133.17964844-3.4122265 1.07761719-3.4122265 3.34044921 0 2.2987891 1.7959375 2.945332 3.4122265 3.519961v4.220371c-1.8318945-.1436914-2.3166992-1.4008203-2.909375-1.4008203-.4489843 0-.8260547.5926758-.8260547 1.02375 0 .8799219 1.5085547 2.0831836 3.7354297 2.1191407v.5567187c0 .2154688.2156055.4130274.5208985.4130274.2694726 0 .5388086-.1975586.5388086-.4130274v-.6105859c1.9396289-.2694727 3.2685351-1.4906446 3.2685351-3.6996094 0-2.4423438-1.7061133-3.2327148-3.2685351-3.8073438zm-.9519727-.3411132c-.9518359-.3591602-1.7240234-.7362305-1.7240234-1.7598438 0-.93392577.7183203-1.38291014 1.7240234-1.50855468zm.8441016 6.1239062v-3.7892969c.8799218.3770704 1.580332.8799219 1.580332 2.0112696 0 1.0238867-.6105859 1.5985156-1.580332 1.7780273z" fill="#fff"/></g></g></svg>