<svg height="70" viewBox="0 0 70 70" width="70" xmlns="http://www.w3.org/2000/svg"><g fill="none" fill-rule="evenodd"><path d="m68.2933398 44.6691602h-.6870117v-3.0161524c2.7176953-2.7502344 2.4084375-7.6573437 2.3570313-8.2796875v-5.1380273c0-1.6542969-1.3459961-3.0001563-3.0000196-3.0001563h-.1152539c-.5230859 0-1.0155468.1345313-1.4441601.370918-.5501563-.6907031-1.3982227-1.1344922-2.3478711-1.1344922h-.1152539c-.506543 0-.9880664.1244141-1.4114844.3489063-.5507031-.6536524-1.3752539-1.0696875-2.2949609-1.0696875h-.1152539c-.4194532 0-.8227735.0865429-1.1905469.2452734-.537168-.8134766-1.4597461-1.3513281-2.5055078-1.3513281h-.1152539c-1.6541602 0-3.0000196 1.3459961-3.0000196 3.0002929v2.8911914c-1.205039-.1291992-2.1466211.1007618-2.8586523.6968555-1.5441016 1.2924024-1.3887891 3.8568359-1.2383984 6.3370508.2052148 3.3851562 3.2230078 6.2253515 4.3859375 7.1998828v1.8990234h-.5792774c-.6100391 0-1.1042773.4942383-1.1042773 1.1042774v5.6805273 17.0314649c0 .610039.4942382 1.1042773 1.1042773 1.1042773h16.2762305c.610039 0 1.1042773-.4942383 1.1042773-1.1042773v-17.0313282-5.6805273c-.0001367-.6097656-.4945117-1.1042773-1.1045508-1.1042773zm-17.878164-9.2326172c-.1063672-1.7519141-.2384375-3.9324414.4513086-4.5095313.2562109-.2146484.7583789-.2694726 1.4411523-.1626953v1.4999414c0 .6100391.4942383 1.1042774 1.1042774 1.1042774.610039 0 1.1042773-.4942383 1.1042773-1.1042774v-6.6189648c0-.436543.3550586-.7917383.7914648-.7917383h.115254c.4365429 0 .7917382.3551953.7917382.7917383v.5122851 3.7510157c0 .610039.4942383 1.1042773 1.1042774 1.1042773.610039 0 1.1042773-.4942383 1.1042773-1.1042773v-3.532129c.1360352-.2533398.400586-.416582.6957617-.416582h.1152539c.436543 0 .7917383.3551953.7917383.7917383v.1559961 3.00125c0 .6100391.4942383 1.1042773 1.1042774 1.1042773.610039 0 1.1042773-.4942382 1.1042773-1.1042773v-2.7953516c.1327539-.2631836.4022266-.4325781.7060156-.4325781h.115254c.4364062 0 .7914648.3551953.7914648.7916016v.7637109 2.214707c0 .6100391.4942383 1.1042774 1.1042773 1.1042774.6099024 0 1.1042774-.4942383 1.1042774-1.1042774v-2.214707c0-.4364062.355332-.7916016.7920117-.7916016h.1152539c.4364063 0 .7914648.3551954.7914648.7916016v5.1862891c0 .0352734.0017774.0706836.0050586.105957.1274219 1.3200195.0213282 5.1150586-1.9712109 6.8017578-.2480078.2098633-.3907422.5180273-.3907422.8430078v3.4969922h-10.5926953v-2.4294922c0-.3493164-.1658398-.6782617-.4450195-.8864844-.0375977-.0283007-3.758125-2.8385546-3.9447461-5.9177343zm16.7738867 31.9447461h-14.0676758v-14.8229102h14.0676758z" fill="#404f54" fill-rule="nonzero"/><path d="m67.1890625 50.3498242h-14.0676758v-3.4719726h.5792774 12.8013867.6870117z" fill="#f4fafa"/><path d="m46.9133984 18.0982812 5.0520313 2.1336329c.3642187.1538086.7479883.2307812 1.1317578.2307812.3706445 0 .7414258-.0716406 1.0948437-.215332.7202344-.2924414 1.283379-.8479297 1.5855274-1.5636524l.6145508-1.4549609c.3024218-.7158594.3078906-1.5067773.0154492-2.226875s-.847793-1.2831055-1.565293-1.5859375l-5.9970312-2.5205469.2772656-1.00255857c.1952344-.81921875.065625-1.62421875-.3547852-2.30630859-.4204101-.68236328-1.0813085-1.15992188-1.8600586-1.34490235-.6224804-.14792968-1.1323046-.13070312-1.6039843.00041016-.3755664-.79939453-1.0982617-1.42693359-2.0224805-1.64664062-.6038867-.14341797-1.1008594-.13371094-1.5640625-.01339844-.0386914-.0765625-.0808008-.1516211-.1261914-.22544922-.4205469-.68236328-1.0814453-1.15992188-1.8601953-1.34490234-.5204883-.12386719-.9322852-.13330079-1.3258984-.06357422-.0693165-.18921875-.1581836-.37269532-.2663282-.54824219-.4204101-.68236328-1.0813086-1.16005859-1.8626562-1.34558594-.8904492-.21136719-1.695586-.08175781-2.3776758.33865235-.677168.41726562-1.1526758 1.07132812-1.3406641 1.84351562l-.1966015.73035156-7.7761524-3.26771484c-.1353515-.04634766-.1536718-.05058594-.1721289-.05509766-.1225-.02242187-.1451953-.02501953-.1676172-.02679687-.0038281-.00027344-2.4742903-.1596875-7.4113867-.47824219-.4652539-.03103516-.8919531.23091797-1.0798047.65283203-.1878515.42205078-.0933789.91642578.2372071 1.23921875l5.1979101 5.07677734c.0958399.08476563.1075977.09283204.1192188.10171876.2463672.15982421.3936132.24089843.5471484.3055664l4.7291016 1.9971875c-.3487696 1.02402347-.5616407 2.24054687-.7523633 3.33621097-.6034766 3.4619922 1.8666211 7.0525 2.696914 8.1417382l.0038282 5.0208594h-.9192969c-.6100391 0-1.1042774.4942383-1.1042774 1.1042774v5.6808007 35.6897461c0 .6100391.4942383 1.1042774 1.1042774 1.1042774h16.2763672c.610039 0 1.1042773-.4942383 1.1042773-1.1042774v-27.6341406c0-.610039-.4942383-1.1042773-1.1042773-1.1042773-.6100391 0-1.1042774.4942383-1.1042774 1.1042773v26.5297266h-14.0676757v-33.4810547h14.0676757v1.8407812 1.2269141c0 .6100391.4942383 1.1042773 1.1042774 1.1042773.610039 0 1.1042773-.494375 1.1042773-1.1042773v-1.2269141-2.9450586-5.6808007c0-.6100391-.4942383-1.1044141-1.1042773-1.1044141h-.4630664l.0099804-2.8527734c1.8651172-1.2353907 2.9121094-3.3811914 3.4766211-5.0598243zm5.8601758-3.1557421 1.2113281.5090039c.1724024.0725976.3061133.2082226.3765235.3814453.0705469.1734961.0691797.3639453-.0036914.5363476l-.6145508 1.4552344c-.0727344.1724024-.2083594.3061133-.3818555.3765234-.1733593.0705469-.3639453.0691797-.5363476-.0036914l-1.2914453-.545371zm-31.1398828-10.48742191-1.9662891-1.92048828 2.7930274.17992187zm20.2011524 17.08464841c-.3696875.1875781-.6033399.5664258-.6047071.9810938l-.0118945 3.3765429h-10.4773047l-.0039648-5.2919726c-.0001368-.2586719-.0921485-.5103711-.2582618-.7088867-.0298046-.0363672-3.0007031-3.6301563-2.4709179-6.6687305.1670703-.9582617.3521875-2.0183789.6174218-2.8537305l1.9969141.8435547c.1203125.3230664.3889649.5855664.7473047.6820899.5878906.1581836 1.1949219-.1904493 1.3532422-.7792969l1.9710742-7.32347658c.0570117-.23748046.182793-.41207031.3629883-.52308593.1799219-.11087891.3921094-.14492188.5996484-.09570313l.1106055.02611328c.2054883.04894532.3800781.17486328.4910937.3550586.1108789.18005859.1450586.39238281.0959766.59855468l-.1121094.47236329-1.3008789 4.50734375c-.1691211.58611328.168711 1.19820314.7548242 1.36732424.1022657.0293945.2053516.0436133.3067969.0436133.4794727 0 .9208008-.3148633 1.0603906-.79830083l1.2569922-4.3553125c.1901758-.22654296.4927344-.33072265.7859961-.26072265l.1130664.02693359c.2058985.04894531.3802149.17486328.4912305.3550586.1088281.17677734.1428711.38486328.0976172.58761718l-1.1569141 3.90742191c-.1730859.5848828.1606446 1.1992968.7455274 1.3722461.1045898.0308984.2101367.0458007.3139062.0458007.4764649 0 .9162891-.3107617 1.0583399-.7911914l1.0709179-3.61730465c.1868946-.25498047.5053125-.37707031.8192188-.30214844l.1116992.02652344c.4246484.10103516.6882422.52841797.587207.95333984l-.167207.7050586-.941582 3.00070311c-.1825196.581875.1412304 1.2016211.7231054 1.3842774.1100586.0344531.2213477.050996.3308594.050996.4697656 0 .9052149-.3021484 1.053418-.7741015l.9533398-3.03830079c.0136719-.05195313.0177735-.06330079.0205078-.07533204.1008985-.42464843.5282813-.6883789.9523828-.58734375l.1132032.0269336c.4194531.09966797.6815429.51802734.5907617.93748047l-1.6332422 5.90542971c-.0128516.0460742-.0226953.0947461-.0292578.141914-.0065625.0467578-.699043 4.7486524-3.4893359 6.1635547z" fill="#404f54" fill-rule="nonzero"/><path d="m28.7179102 31.6918164v-3.4721094h14.0676757v3.4721094z" fill="#1caba0"/><path d="m47.5007422 15.7572461.7511328-2.7152344 2.4845898 1.0441211-1.2383984 2.706211-2.0269922-.8558594c.013125-.0746485.0228321-.1352149.029668-.1792383z" fill="#ff7f45"/><path d="m23.4453516 5.78894531 1.2563086-2.64496094 7.0798437 2.97541016-.770957 2.86439453z" fill="#ff7f45"/><path d="m21.8435547 39.463457v-5.1374804c0-1.6544336-1.3459961-3.000293-3.000293-3.000293h-.1152539c-.5230859 0-1.0154101.1345312-1.4440234.370918-.5501563-.6908399-1.3983594-1.1344922-2.3480078-1.1344922h-.1152539c-.5064063 0-.987793.1245508-1.411211.3491797-.5508398-.6539258-1.3753906-1.069961-2.2952344-1.069961h-.1152539c-.4193164 0-.8226367.086543-1.1902734.2451367-.53716797-.8133398-1.45974609-1.3511914-2.50550781-1.3511914h-.11525391c-1.65443359 0-3.00029297 1.3459961-3.00029297 3.000293v2.8913281c-1.2053125-.1300195-2.14607422.1007617-2.8583789.6967188-1.54410157 1.2921289-1.38878907 3.8568359-1.23839844 6.3371875.20521484 3.3851562 3.22273437 6.2253515 4.38566406 7.1998828v1.8990234h-.57927734c-.61003906 0-1.10427735.4942383-1.10427735 1.1042774v5.6808008 10.9410546c0 .6100391.49423829 1.1042774 1.10427735 1.1042774h16.27650391c.6100391 0 1.1042773-.4942383 1.1042773-1.1042774v-10.9410546-5.6808008c0-.6100391-.4942382-1.1042774-1.1042773-1.1042774h-.6870117v-3.0161523c2.7174218-2.7502344 2.408164-7.6576172 2.3567578-8.2800977zm-2.7742969 27.9178321h-14.06794921v-8.7325h14.06794921zm-1.4005469-20.9614454c-.2480078.2098633-.3907422.5180274-.3907422.8430079v3.4969921h-10.59324214v-.0001367-2.4296289c0-.3495898-.1655664-.6785351-.44611328-.8866211-1.04412109-.7749218-3.78779297-3.3479687-3.94337891-5.9165039-.10636718-1.751914-.2384375-3.9325781.4513086-4.5096679.2559375-.214375.75878906-.2691993 1.4408789-.1626954v1.4999414c0 .6100391.49423829 1.1042774 1.10427735 1.1042774s1.10427734-.4942383 1.10427734-1.1042774v-6.619375c0-.4365429.35519531-.7917382.79173828-.7917382h.11539063c.43654297 0 .79173828.3551953.79173828.7917382v.5122852 3.7510156c0 .6100391.49423828 1.1042774 1.10427734 1.1042774.61003907 0 1.10427731-.4942383 1.10427731-1.1042774v-3.5321289c.1361719-.2534765.4004493-.4167187.6954883-.4167187h.1152539c.436543 0 .7917383.3551953.7917383.7917383v.1562695 3.0011133c0 .610039.4942383 1.1042773 1.1042773 1.1042773.6100391 0 1.1042774-.4942383 1.1042774-1.1042773v-2.7953516c.1328906-.2633203.4022266-.4327148.7060156-.4327148h.1152539c.436543 0 .7917383.3551953.7917383.7916015v.7638477 2.214707c0 .6100391.4942383 1.1042774 1.1042773 1.1042774.6100391 0 1.1042774-.494375 1.1042774-1.1042774v-2.2148437c0-.436543.3551953-.7917383.7917383-.7917383h.1152539c.4365429 0 .7917383.3551953.7917383.7917383v5.1860156c0 .0352734.0017773.0706836.0050586.105957.1275585 1.3200195.0214648 5.1151953-1.9710743 6.8018945z" fill="#404f54" fill-rule="nonzero"/><path d="m19.0692578 56.4403711h-14.06794921v-3.4721094h.57914063 12.80166018.6871484z" fill="#f4fafa"/></g></svg>