<svg height="57" viewBox="0 0 65 57" width="65" xmlns="http://www.w3.org/2000/svg" xmlns:xlink="http://www.w3.org/1999/xlink"><mask id="a" fill="#fff"><path d="m.01004082.08718776v55.97437144h64.26423678v-55.97437144z" fill="#fff" fill-rule="evenodd"/></mask><g fill="none" fill-rule="evenodd"><path d="m-8-13h82v82h-82z"/><g transform="translate(.2 -.7)"><g transform="translate(0 1.171429)"><path d="m8.66859692 55.9029607c.13904303.0637479.30339536.0890572.4554094.0890572.29105707 0 .58195595-.1143665.79708509-.3163664l7.93446879-7.5927931h14.9198383c3.1007069 0 5.6186669-2.5185927 5.6186669-5.6192996v-8.465806c0-.6327328-.5185245-1.1512573-1.1512573-1.1512573-.6327327 0-1.1517318.5185245-1.1517318 1.1512573v8.465806c0 1.8352414-1.4934075 3.3156779-3.3156778 3.3156779h-15.387586c-.2916898 0-.5827469.1143664-.7977179.3163663l-6.3273275 6.0492415v-5.2013796c0-.6327327-.51836631-1.1512572-1.15109907-1.1512572h-3.49300117c-1.83460862 0-3.31567782-1.4934075-3.31567782-3.3156778v-16.5775982c0-1.8346086 1.49340749-3.3281743 3.31567782-3.3281743h13.57828674c.6327327 0 1.15189-.5189991 1.15189-1.1517318 0-.6327328-.5191573-1.1510991-1.15189-1.1510991h-13.57828674c-3.10007413 0-5.61866686 2.51796-5.61866686 5.6185087v16.5771236c0 3.1007069 2.51859273 5.6192996 5.61866686 5.6192996h2.35344948v6.769766c0 .4558839.27871878.873013.69648058 1.0503363z" fill="#404f54" mask="url(#a)"/><path d="m12.721543 33.7567838h14.524526" mask="url(#a)" stroke="#1caba0" stroke-linecap="round" stroke-width="2"/></g><path d="m27.0166571 23.6961592v-17.67133471c0-1.95528163 1.5931429-3.54825714 3.5477551-3.54825714h28.9444939c1.9544449 0 3.5475878 1.59297551 3.5475878 3.54825714v17.67133471c0 1.9546122-1.5931429 3.5477551-3.5475878 3.5477551h-3.735351c-.6693878 0-1.2184531.5490653-1.2184531 1.218453v3.2559815c0 .5522847-.4477152 1-1 1-.2575186 0-.5051106-.0993452-.691208-.2773442l-5.0692736-4.848674c-.2282612-.2145388-.5224571-.3346939-.8439306-.3346939h-16.3862776c-1.9546122 0-3.5477551-1.5931428-3.5477551-3.5614775z" fill="#ff7f45"/><path d="m63.0564939 14.0248245v9.6713347c0 1.9546122-1.5931429 3.5477551-3.5475878 3.5477551h-3.735351c-.6693878 0-1.2184531.5490653-1.2184531 1.218453v3.2559815c0 .5522847-.4477152 1-1 1-.2575186 0-.5051106-.0993452-.691208-.2773442l-5.0692736-4.848674c-.2282612-.2145388-.5224571-.3346939-.8439306-.3346939h-16.3862776c-1.9546122 0-3.5477551-1.5931428-3.5477551-3.5614775v-17.67133471c0-1.95528163 1.5931429-3.54825714 3.5477551-3.54825714h28.9444939" stroke="#404f54" stroke-linecap="round" stroke-width="2"/><path d="m45.0365755 16.3198408c-.3216408 0-.6295592-.1208245-.8569837-.3614694-.2274245-.2274245-.3614694-.5353428-.3614694-.8569836 0-.3216409.1340449-.6295592.3614694-.8569837s.5353429-.3614694.8569837-.3614694c.3209714 0 .6288898.1340449.8563143.3614694.2282612.2274245.3614694.5353428.3614694.8569837 0 .3216408-.1332082.6295591-.3614694.8569836-.2274245.2274245-.5353429.3614694-.8563143.3614694zm4.5248939 0c-.3216408 0-.6426123-.1208245-.8569837-.3614694-.2274245-.2274245-.3614694-.5353428-.3614694-.8569836 0-.3216409.1340449-.6295592.3614694-.8569837s.5353429-.3614694.8569837-.3614694c.3209714 0 .6295592.1340449.8569837.3614694.2275918.2274245.3614693.5353428.3614693.8569837 0 .3216408-.1338775.6295591-.3614693.8569836-.2274245.2274245-.5360123.3614694-.8569837.3614694zm-9.0367347 0c-.3216408 0-.6295592-.1208245-.8569837-.3614694-.2274245-.2274245-.3614694-.5353428-.3614694-.8569836 0-.3216409.1340449-.6295592.3614694-.8569837s.5353429-.3614694.8569837-.3614694c.3209714 0 .6295592.1340449.8569837.3614694.2275918.2274245.3614694.5353428.3614694.8569837 0 .3216408-.1338776.6295591-.3614694.8569836-.2274245.2274245-.5360123.3614694-.8569837.3614694z" fill="#fff"/></g></g></svg>