<svg height="28" viewBox="0 0 144 28" width="144" xmlns="http://www.w3.org/2000/svg"><path d="m143.352832 21h6.691272c.527927 0 .955896.4470766.955896.9985735v6.9900142c0 .5514969-.427969.9985735-.955896.9985735h-6.691272c-.527927 0-.955896-.4470766-.955896-.9985735v-6.9900142c0-.5514969.427969-.9985735.955896-.9985735zm1.911792 3.3572729h1.287364v4.1320281h1.102376v-5.9914408h-.894737c0 .0523393-.013842.1322244-.041528.2396576-.04782.1790555-.118291.3222977-.211414.429731-.13591.1570178-.312087.2616948-.528537.3140341-.13591.0330564-.373749.0578483-.713524.0743765zm-138.264624 24.1034974v-19.0348074h13.4723985v3.6937233h-8.9299806v3.4510699h8.3363692v3.6128388h-8.3363692v4.5295292h9.7300656v3.7476462zm16.6727384 0v-19.0617689h4.5424179v15.0445079h7.1233371v4.017261zm13.9885823 0v-19.0348074h13.4723985v3.6937233h-8.9299806v3.4510699h8.3363692v3.6128388h-8.3363692v4.5295292h9.7300656v3.7476462zm30.1709461-19.0348074h6.6329625v19.0348074h-4.3617536l.2839012-13.5616262.0516183-1.9142654-.1548551.6740371c-.2322827 1.0784594-.2580919 1.2132668-.4645655 2.0221113l-3.4326226 12.7797432h-3.9229972l-3.3035767-12.2405135-.800085-3.397147c.0774276 1.5098431.0774276 1.8333809.1548552 3.6398003l.2322827 11.9978602h-4.4133719v-19.0348074h6.6587717l2.7873928 10.6767475.6452298 3.0466477c.2580919-1.3211127.2839011-1.4559202.4903746-2.3456491zm10.1688219 19.0348074v-19.0348074h13.4723985v3.6937233h-8.9299807v3.4510699h8.3363692v3.6128388h-8.3363692v4.5295292h9.7300656v3.7476462zm16.6469291 0v-19.0348074h4.4649904l3.9488068 7.0099857c1.445314 2.6691869 1.884071 3.5319544 2.735774 5.2035664l-.206474-12.2135521h4.361754v19.0348074h-4.46499l-3.406814-6.0124108c-1.651788-2.8309558-1.961498-3.4241084-3.2003396-5.9584879l.129046 11.9708987zm17.2663502-15.2871612v-3.7746077h14.0402v3.7746077h-4.723082v15.2871612h-4.568227v-15.2871612zm30.196755 13.8312411c-1.780834 1.5368046-3.84557 1.9951498-5.729641 1.9951498-5.781259 0-9.059026-4.6373752-9.059026-10.1375178 0-5.1496434 3.122912-10.0296719 8.981599-10.0296719 1.083986 0 2.21959.1617689 3.329385.5661911 5.574786 2.0221113 5.936115 8.3580599 5.936115 9.6522112 0 3.289301-1.445315 6.2550641-3.458432 7.9536376zm-1.109795-7.6300998c.077427-1.9951498-.438757-4.0172611-1.471124-5.1766049-.774276-.8627675-1.961499-1.4019971-3.20034-1.4019971-2.761584 0-4.516609 2.5343794-4.516609 5.9854493 0 4.5295293 2.426064 6.2011412 4.568227 6.2011412 2.167972 0 4.4908-1.617689 4.619846-5.6079885z" fill="#fff" fill-rule="evenodd" transform="translate(-7 -21)"/></svg>