<svg height="148" viewBox="0 0 148 148" width="148" xmlns="http://www.w3.org/2000/svg" xmlns:xlink="http://www.w3.org/1999/xlink"><defs><filter id="c" height="566.7%" width="566.7%" x="-233.3%" y="-233.3%"><feOffset in="SourceAlpha" result="shadowOffsetOuter1"/><feGaussianBlur in="shadowOffsetOuter1" result="shadowBlurOuter1" stdDeviation="10"/><feColorMatrix in="shadowBlurOuter1" result="shadowMatrixOuter1" values="0 0 0 0 0.843137255 0 0 0 0 0.870588235 0 0 0 0 0.890196078 0 0 0 0.394219882 0"/><feOffset dy="26" in="SourceAlpha" result="shadowOffsetOuter2"/><feGaussianBlur in="shadowOffsetOuter2" result="shadowBlurOuter2" stdDeviation="45"/><feColorMatrix in="shadowBlurOuter2" result="shadowMatrixOuter2" values="0 0 0 0 0.2 0 0 0 0 0.231372549 0 0 0 0 0.270588235 0 0 0 0.1 0"/><feMerge><feMergeNode in="shadowMatrixOuter1"/><feMergeNode in="shadowMatrixOuter2"/><feMergeNode in="SourceGraphic"/></feMerge></filter><circle id="a" cx="54" cy="54" r="54"/><path id="b" d="M24.584 58.47a3.365 3.365 0 0 1-1.638-.416c-1.358-.748-1.956-2.298-1.417-3.696l6.702-17.373-6.617-1.783c-1.06-.282-1.898-1.054-2.223-2.047a2.939 2.939 0 0 1 .624-2.874l18.7-20.946c.988-1.109 2.672-1.397 4.017-.729 1.352.68 2.022 2.163 1.593 3.554l-4.693 15.345 6.838 1.845c1.066.281 1.904 1.06 2.223 2.059.325 1.005.078 2.09-.644 2.88L27.048 57.398c-.63.698-1.547 1.072-2.464 1.072z"/><mask id="d" fill="#fff"><use fill="none" xlink:href="#a"/></mask><mask id="e" fill="#fff"><use fill="none" xlink:href="#b"/></mask></defs><g fill="none" fill-rule="evenodd" filter="url(#c)" transform="translate(20 20)"><use fill="#fff" xlink:href="#a"/><path d="M0 0h108v108H0z" fill="#ff7f45" mask="url(#d)"/><g transform="translate(21 21)" mask="url(#d)"><use fill="#fd9843" fill-rule="nonzero" xlink:href="#b"/><path d="M0 0h66v66H0z" fill="#fff" mask="url(#e)"/></g></g></svg>