<svg height="63" viewBox="0 0 86 63" width="86" xmlns="http://www.w3.org/2000/svg"><g fill="none" fill-rule="evenodd"><path d="M-7-18v121.951h121.951V-18z"/><path d="M1.537 61.268h19.288V50.231l1.443-1.996-3.84-1.6-3.3 2.742-3.65-.588-2.998-2.155-6.943 3.597z" fill="#ff7f45"/><path d="M66.212 62.488h18.251V50.772l-2.148-1.928-6.977-2.21-3.528 4.138-4.995-4.138-3.083 1.635 2.48 2.983zM30.824 20.818h2.443v-3.373l.783-2.9 2.726-.912c4.797-1.333 8.402-1.333 10.815 0s4.23 2.364 5.45 3.093v3.728h3.232l1.142-2.232.575-16.474H37.374c-4.916.93-7.609 3.144-8.077 6.64-.468 3.497-.702 6.276-.702 8.338z" fill="#f4fafa"/><path d="M75.632 28.513c-2.904-1.452-8.35-1.469-8.581-1.469a1.25 1.25 0 0 0 0 2.501c1.405 0 5.486.217 7.463 1.205a1.25 1.25 0 0 0 1.118-2.237z" fill="#404f54" fill-rule="nonzero"/><path d="M81.867 46.317l-5.165-1.476a.524.524 0 0 1-.378-.502v-1.723c.42-.291.82-.617 1.195-.98a9.2 9.2 0 0 0 2.816-6.656v-2.379l.5-.998a7.977 7.977 0 0 0 .837-3.55V21.61c0-.691-.56-1.25-1.25-1.25H68.387c-4.376 0-7.936 3.56-7.936 7.935v.074c0 1.02.241 2.04.697 2.951l.64 1.281v2.043a9.757 9.757 0 0 0 4.012 7.888v1.807c0 .279 0 .394-1.033.69l-2.52.72-7.29-2.652a1.249 1.249 0 0 0-.34-.957l-2.33-2.447v-4.108c.247-.203.49-.412.725-.632a14.676 14.676 0 0 0 4.624-10.67v-3.28a14.454 14.454 0 0 0 1.337-6.079V1.554c0-.69-.56-1.25-1.25-1.25h-18.72c-6.587 0-11.946 5.36-11.946 11.946v2.675c0 2.104.45 4.147 1.337 6.078v2.823c0 4.674 2.078 8.886 5.348 11.662v4.205l-2.33 2.447c-.25.264-.366.614-.34.958l-7.694 2.797a6.557 6.557 0 0 0-1.546.81l-1.208-.604c3.597-1.565 4.736-3.767 4.79-3.876a1.25 1.25 0 0 0 0-1.119c-.901-1.803-1.01-5.108-1.098-7.763-.03-.884-.057-1.719-.11-2.463-.426-5.998-4.986-10.52-10.606-10.52S3.42 24.881 2.994 30.88c-.053.744-.08 1.58-.11 2.463-.087 2.656-.197 5.96-1.098 7.763a1.25 1.25 0 0 0 0 1.118c.055.11 1.192 2.307 4.795 3.874l-3.355 1.678a5.234 5.234 0 0 0-2.909 4.707v9.238a1.25 1.25 0 0 0 2.501 0v-9.238c0-1.053.585-1.999 1.526-2.47l4.179-2.089 1.453 1.381a5.246 5.246 0 0 0 3.625 1.449 5.248 5.248 0 0 0 3.624-1.449l1.454-1.38 1.362.68a6.585 6.585 0 0 0-1.005 3.492v9.624a1.25 1.25 0 0 0 2.5 0v-9.624a4.11 4.11 0 0 1 2.698-3.851l8.112-2.95 3.376 5.066a2.578 2.578 0 0 0 2.156 1.152c.683 0 1.338-.27 1.827-.758l2.06-2.06V61.72a1.25 1.25 0 0 0 2.501 0V48.696l2.06 2.06a2.576 2.576 0 0 0 2.085.745 2.578 2.578 0 0 0 1.898-1.14l3.377-5.065 8.111 2.95a4.11 4.11 0 0 1 2.698 3.851v9.625a1.25 1.25 0 0 0 2.5 0v-9.625a6.61 6.61 0 0 0-1.849-4.575l.31-.088c.31-.09.736-.211 1.163-.42l3.193 3.192v11.516a1.25 1.25 0 0 0 2.5 0V50.206l3.171-3.17c.169.085.346.158.532.21l5.165 1.476a2.773 2.773 0 0 1 2.002 2.655v10.345a1.25 1.25 0 0 0 2.5 0V51.377a5.285 5.285 0 0 0-3.815-5.06zM8.339 44.108C6 43.267 4.827 42.145 4.326 41.532c.342-.893.563-1.915.713-2.994a9.325 9.325 0 0 0 3.3 4.072zm7.164 3.385a2.76 2.76 0 0 1-3.804 0l-1.163-1.106c.197-.367.304-.784.304-1.22v-1.334a9.301 9.301 0 0 0 5.521 0v1.333c0 .437.108.854.305 1.222zm-1.902-5.74A6.78 6.78 0 0 1 6.83 34.98a1.25 1.25 0 0 0-1.456-1.232l.01-.322c.029-.86.056-1.671.105-2.368.16-2.247 1.058-4.317 2.528-5.83 1.484-1.527 3.467-2.368 5.584-2.368s4.1.841 5.584 2.368c1.47 1.513 2.368 3.583 2.528 5.83.05.696.077 1.508.105 2.368l.007.223c-1.36-2.096-3.461-3.64-6.176-4.513-2.508-.806-4.665-.756-4.756-.754a1.25 1.25 0 0 0-.866.382l-2.256 2.34a1.25 1.25 0 1 0 1.8 1.736l1.878-1.947c1.616.08 6.818.684 8.84 5.139a6.755 6.755 0 0 1-6.688 5.72zm5.261 2.36V42.62a9.25 9.25 0 0 0 3.302-4.076c.15 1.076.371 2.097.712 2.987-.498.607-1.677 1.74-4.014 2.58zm12.034-20.287v-3.103a1.25 1.25 0 0 0-.124-.543 11.995 11.995 0 0 1-1.213-5.255V12.25c0-5.209 4.237-9.446 9.446-9.446h17.468v12.12c0 1.82-.408 3.588-1.213 5.255a1.25 1.25 0 0 0-.124.543v3.561c0 3.386-1.362 6.527-3.834 8.845-.308.289-.628.56-.96.812l-.021.016c-2.316 1.758-5.152 2.613-8.114 2.42-6.343-.41-11.311-5.923-11.311-12.551zm12.12 20.336l-6.772-4.63V37.2a14.08 14.08 0 0 0 6.785 1.706c2.39 0 4.692-.571 6.759-1.656v2.284zm28.046 3.757l-2.838-2.837a3.43 3.43 0 0 0 .078-.743v-.528a8.768 8.768 0 0 0 2.764.442c.949 0 1.875-.143 2.757-.417v.503c0 .25.031.494.09.73zm4.716-8.079a6.72 6.72 0 0 1-4.925 1.909c-3.619-.109-6.563-3.296-6.563-7.105v-2.338a1.25 1.25 0 0 0-.132-.559l-.772-1.545a4.12 4.12 0 0 1-.433-1.832v-.075a5.44 5.44 0 0 1 5.435-5.435h10.783v5.194c0 .84-.198 1.68-.574 2.43l-.631 1.263a1.25 1.25 0 0 0-.132.56v2.673c0 1.848-.73 3.574-2.056 4.86z" fill="#404f54" fill-rule="nonzero"/><path d="M37.937 48.987c-.009.009-.03.03-.07.025a.08.08 0 0 1-.063-.038l-3.89-5.834 1.252-1.315 5.9 4.033zM48.228 48.974a.08.08 0 0 1-.063.038c-.041.006-.061-.016-.07-.024l-3.13-3.13 5.9-4.032 1.252 1.315z" fill="#1caba0"/><g fill="#404f54" fill-rule="nonzero"><path d="M79.084 52.448c-.69 0-1.25.56-1.25 1.25v8.023a1.25 1.25 0 0 0 2.5 0v-8.022c0-.69-.56-1.25-1.25-1.25zM6.916 54.101c-.69 0-1.25.56-1.25 1.25v6.37a1.25 1.25 0 0 0 2.5 0v-6.37c0-.69-.56-1.25-1.25-1.25zM53.26 15.378c-4.73-4.73-14.625-3.826-18.66-3.217a2.567 2.567 0 0 0-2.194 2.557v2.88a1.25 1.25 0 0 0 2.5 0v-2.88c0-.043.029-.079.066-.085 1.612-.243 4.81-.617 8.124-.397 3.9.26 6.724 1.239 8.395 2.91a1.25 1.25 0 1 0 1.768-1.768zM28.308 55.122c-.69 0-1.25.56-1.25 1.25v5.35a1.25 1.25 0 0 0 2.5 0v-5.35c0-.69-.559-1.25-1.25-1.25zM57.723 55.122c-.69 0-1.25.56-1.25 1.25v5.35a1.25 1.25 0 0 0 2.5 0v-5.35c0-.69-.56-1.25-1.25-1.25z"/></g></g></svg>