<svg height="57" viewBox="0 0 65 57" width="65" xmlns="http://www.w3.org/2000/svg"><mask id="a" fill="#fff"><path d="M.01.087v55.975h64.264V.087z" fill-rule="evenodd"/></mask><g fill="none" fill-rule="evenodd"><path d="M-8-13h82v82H-8z"/><path d="M8.669 55.903a1.177 1.177 0 0 0 1.252-.227l7.935-7.593h14.92c3.1 0 5.618-2.519 5.618-5.62v-8.465c0-.633-.518-1.152-1.151-1.152s-1.152.519-1.152 1.152v8.466a3.319 3.319 0 0 1-3.316 3.315H17.388c-.292 0-.583.115-.798.317l-6.327 6.049v-5.202c0-.632-.519-1.15-1.151-1.15H5.619a3.32 3.32 0 0 1-3.316-3.316V25.899a3.33 3.33 0 0 1 3.316-3.328h13.578c.633 0 1.152-.52 1.152-1.152 0-.633-.52-1.151-1.152-1.151H5.619A5.622 5.622 0 0 0 0 25.886v16.578c0 3.1 2.519 5.619 5.619 5.619h2.353v6.77c0 .456.279.873.697 1.05z" fill="#404f54" mask="url(#a)" transform="translate(.2 .471)"/><path d="M12.722 33.757h14.524" mask="url(#a)" stroke="#1caba0" stroke-linecap="round" stroke-width="2" transform="translate(.2 .471)"/><path d="M27.217 22.996V5.325a3.554 3.554 0 0 1 3.547-3.548H59.71a3.554 3.554 0 0 1 3.547 3.548v17.671a3.554 3.554 0 0 1-3.547 3.548h-3.735c-.67 0-1.219.549-1.219 1.218v3.256a1 1 0 0 1-1.691.723l-5.07-4.849a1.219 1.219 0 0 0-.843-.334H30.764a3.557 3.557 0 0 1-3.547-3.562z" fill="#ff7f45"/><path d="M63.256 13.325v9.671a3.554 3.554 0 0 1-3.547 3.548h-3.735c-.67 0-1.219.549-1.219 1.218v3.256a1 1 0 0 1-1.691.723l-5.07-4.849a1.219 1.219 0 0 0-.843-.334H30.764a3.557 3.557 0 0 1-3.547-3.562V5.325a3.554 3.554 0 0 1 3.547-3.548H59.71" stroke="#404f54" stroke-linecap="round" stroke-width="2"/><path d="M45.237 15.62c-.322 0-.63-.121-.857-.362a1.218 1.218 0 0 1-.362-.857c0-.321.134-.63.362-.857s.535-.361.857-.361c.32 0 .628.134.856.361.228.228.361.536.361.857 0 .322-.133.63-.361.857a1.217 1.217 0 0 1-.856.362zm4.524 0c-.321 0-.642-.121-.857-.362a1.218 1.218 0 0 1-.361-.857c0-.321.134-.63.361-.857s.536-.361.857-.361c.321 0 .63.134.857.361.228.228.362.536.362.857 0 .322-.134.63-.362.857a1.219 1.219 0 0 1-.857.362zm-9.036 0c-.322 0-.63-.121-.857-.362a1.218 1.218 0 0 1-.362-.857c0-.321.134-.63.362-.857s.535-.361.857-.361c.32 0 .63.134.857.361.227.228.361.536.361.857 0 .322-.134.63-.361.857a1.219 1.219 0 0 1-.857.362z" fill="#fff"/></g></svg>