<svg height="69" viewBox="0 0 70 69" width="70" xmlns="http://www.w3.org/2000/svg"><g fill="none" fill-rule="evenodd"><circle cx="30.962" cy="13.91" fill="#ff7f45" r="13.013"/><g fill-rule="nonzero"><path d="M57.764 36.314c-.563 0-1.019.456-1.019 1.019 0 .713-.58 1.293-1.293 1.293s-1.294-.58-1.294-1.293a1.019 1.019 0 1 0-2.037 0 3.335 3.335 0 0 0 3.33 3.33 3.335 3.335 0 0 0 3.332-3.33c0-.563-.456-1.019-1.019-1.019z" fill="#1caba0"/><path d="M67.326 36.48l-2.867-.918a1.2 1.2 0 0 1-.774-.784 18.486 18.486 0 0 0-2.71-5.361 19.673 19.673 0 0 0-1.811-2.136c.423-1.856.653-3.956.623-5.77-.043-2.596-.561-4.118-1.586-4.655-.551-.29-2.23-1.168-11.318 2.992-.215.098-.416.22-.602.358a39.517 39.517 0 0 0-1.869-.453c-.075-.017-.154-.031-.23-.048a13.878 13.878 0 0 0 1.247-5.159 1.019 1.019 0 1 0-2.035-.091 11.836 11.836 0 0 1-3.464 7.857 11.794 11.794 0 0 1-4.292 2.74 29.542 29.542 0 0 0-8.2 0 11.793 11.793 0 0 1-4.29-2.74 11.79 11.79 0 0 1-3.476-8.392c0-3.17 1.234-6.15 3.475-8.39 2.242-2.242 5.222-3.477 8.392-3.477s6.15 1.235 8.39 3.476c.902.9 1.646 1.929 2.213 3.055a1.019 1.019 0 1 0 1.82-.916 13.89 13.89 0 0 0-2.591-3.58A13.814 13.814 0 0 0 31.539.016a13.814 13.814 0 0 0-9.832 4.072 13.814 13.814 0 0 0-4.073 9.832c0 3.714 1.446 7.206 4.073 9.832a13.897 13.897 0 0 0 2.453 1.955c-.632.165-1.261.35-1.883.557a1.019 1.019 0 0 0 .646 1.933 27.34 27.34 0 0 1 17.231 0 1.017 1.017 0 0 0 1.29-.644 1.019 1.019 0 0 0-.644-1.289 28.66 28.66 0 0 0-1.884-.557h.001a13.892 13.892 0 0 0 4.23-4.135 39.043 39.043 0 0 1 1.924.426c-.011.044-.023.089-.032.133-.497 2.358-.465 4.443.096 6.198.503 1.577 1.413 2.855 2.701 3.798 1.52 1.11 3.353 1.59 5.015 1.59 1.25 0 2.403-.271 3.25-.75.957-.543 1.76-1.686 2.394-3.402.294.343.572.694.834 1.053a16.45 16.45 0 0 1 2.413 4.771 3.24 3.24 0 0 0 2.096 2.114l2.867.918a1.804 1.804 0 0 1 1.258 1.724v4.754c0 .79-.506 1.483-1.258 1.724l-4.62 1.48a3.147 3.147 0 0 0-1.76 1.43c-1.816 3.136-4.67 5.732-8.482 7.714-.44.23-.746.64-.838 1.126l-1.48 7.834a.458.458 0 0 1-.45.372h-4.81a.458.458 0 0 1-.45-.372l-.819-4.33a1.6 1.6 0 0 0-1.82-1.287 42.585 42.585 0 0 1-6.346.472c-1.592 0-3.162-.089-4.67-.264a1.614 1.614 0 0 0-1.765 1.295l-.778 4.114a.458.458 0 0 1-.45.372h-4.81a.459.459 0 0 1-.451-.375l-1.425-7.4a1.6 1.6 0 0 0-.822-1.112c-6.5-3.47-9.936-9.267-9.936-16.765 0-3.788.83-7.138 2.464-9.957 1.525-2.63 3.753-4.805 6.62-6.464a1.019 1.019 0 0 0-1.02-1.764c-5.56 3.218-8.915 8.181-9.839 14.485l-.294-.027a5.072 5.072 0 0 0-.373-2.033c-.591-1.47-1.805-2.53-3.093-2.701-1.015-.136-1.981.295-2.651 1.18-.972 1.285-.814 2.3-.51 2.927.513 1.058 1.832 1.805 4.02 2.276-.06.09-.126.18-.198.271-1.293 1.622-2.817 1.98-3.806 2.014A1.07 1.07 0 0 0 0 42.2v.004c0 .572.451 1.038 1.022 1.064.073.004.15.006.23.006 1.251 0 3.26-.462 5.19-2.882a5.81 5.81 0 0 0 .744-1.202c.192.022.377.04.554.057v-.001a26.766 26.766 0 0 0-.054 1.682c0 4.242 1.011 8.024 3.006 11.242 1.839 2.967 4.471 5.396 7.828 7.223l1.385 7.194a2.497 2.497 0 0 0 2.451 2.03h4.81a2.497 2.497 0 0 0 2.452-2.03l.704-3.72c1.463.155 2.977.233 4.507.233 2.1 0 4.198-.146 6.242-.435l.742 3.922a2.497 2.497 0 0 0 2.452 2.031h4.81a2.497 2.497 0 0 0 2.452-2.032l1.44-7.627c4.07-2.152 7.138-4.98 9.12-8.405.143-.247.363-.428.62-.51l4.62-1.48A3.836 3.836 0 0 0 70 44.899v-4.755a3.835 3.835 0 0 0-2.674-3.663zm-9.73-12.107c-.392 3.353-1.443 6.222-2.5 6.82-1.201.68-3.975.812-6.057-.711-2.085-1.525-2.778-4.267-2.007-7.93a1.23 1.23 0 0 1 .7-.852c5.1-2.334 8.04-3.098 9.132-3.098.165 0 .288.017.37.05.328.35.758 2.337.363 5.721zM2.86 35.683c-.105-.217.144-.599.301-.807.25-.33.48-.398.655-.398.037 0 .071.003.102.007.469.062 1.125.578 1.473 1.442.082.204.188.54.213.96-1.41-.291-2.506-.713-2.744-1.203z" fill="#404f54"/><path d="M32.528 12.753V9.107c1.257.09 1.724.665 2.155.665.539 0 .79-.683.79-1.024 0-.88-1.724-1.257-2.945-1.293V6.97c0-.216-.27-.413-.539-.413-.305 0-.52.197-.52.413v.52c-1.707.18-3.413 1.078-3.413 3.341 0 2.299 1.796 2.945 3.412 3.52v4.22c-1.832-.143-2.317-1.4-2.91-1.4-.448 0-.825.592-.825 1.023 0 .88 1.508 2.084 3.735 2.12v.556c0 .216.216.413.521.413.27 0 .539-.197.539-.413v-.61c1.94-.27 3.268-1.491 3.268-3.7 0-2.442-1.706-3.233-3.268-3.807zm-.952-.341c-.952-.36-1.724-.737-1.724-1.76 0-.934.718-1.383 1.724-1.509zm.844 6.124v-3.79c.88.377 1.58.88 1.58 2.011 0 1.024-.61 1.599-1.58 1.779z" fill="#fff"/></g></g></svg>