<svg height="70" viewBox="0 0 70 70" width="70" xmlns="http://www.w3.org/2000/svg"><g fill="none" fill-rule="evenodd"><path d="M68.293 44.67h-.687v-3.017c2.718-2.75 2.409-7.657 2.357-8.28v-5.138c0-1.654-1.346-3-3-3h-.115c-.523 0-1.015.135-1.444.371a2.997 2.997 0 0 0-2.348-1.134h-.115c-.507 0-.988.124-1.412.348a2.995 2.995 0 0 0-2.295-1.07h-.115a3 3 0 0 0-1.19.246 3 3 0 0 0-2.506-1.351h-.115c-1.654 0-3 1.346-3 3v2.891c-1.205-.129-2.147.101-2.859.697-1.544 1.292-1.389 3.857-1.238 6.337.205 3.385 3.223 6.225 4.386 7.2v1.899h-.58c-.61 0-1.104.494-1.104 1.104v22.712c0 .61.494 1.105 1.104 1.105h16.277c.61 0 1.104-.495 1.104-1.105V45.774c0-.61-.495-1.105-1.105-1.105zm-17.878-9.233c-.106-1.752-.238-3.933.451-4.51.257-.215.759-.27 1.442-.163v1.5a1.104 1.104 0 1 0 2.208 0v-6.619c0-.436.355-.791.792-.791h.115c.436 0 .792.355.792.791v4.263a1.104 1.104 0 1 0 2.208 0v-3.532a.789.789 0 0 1 .696-.416h.115c.437 0 .792.355.792.792v3.156a1.104 1.104 0 1 0 2.209 0v-2.794a.787.787 0 0 1 .706-.433h.115c.436 0 .791.355.791.792V30.45a1.104 1.104 0 1 0 2.209 0v-2.215c0-.436.355-.791.792-.791h.115c.436 0 .792.355.792.791v5.187c0 .035.001.07.005.105.127 1.32.02 5.116-1.972 6.802-.248.21-.39.518-.39.843v3.497H54.805v-2.43c0-.349-.166-.678-.445-.886-.038-.028-3.758-2.838-3.945-5.917zM67.19 67.38H53.121V52.558H67.19z" fill="#404f54" fill-rule="nonzero"/><path d="M67.19 50.35H53.12v-3.472H67.19z" fill="#f4fafa"/><path d="M46.913 18.098l5.052 2.134a2.905 2.905 0 0 0 3.813-1.548l.614-1.455c.303-.716.308-1.507.016-2.227s-.848-1.283-1.566-1.586l-5.997-2.52.277-1.003a3.001 3.001 0 0 0-2.214-3.651c-.623-.148-1.133-.131-1.604 0a2.997 2.997 0 0 0-2.023-1.647c-.604-.143-1.1-.133-1.564-.013a2.98 2.98 0 0 0-1.986-1.57c-.52-.124-.933-.134-1.326-.064a3.035 3.035 0 0 0-.266-.548 2.981 2.981 0 0 0-1.863-1.346c-.89-.211-1.696-.082-2.378.339a2.98 2.98 0 0 0-1.34 1.843l-.197.73L24.585.7c-.136-.046-.154-.05-.172-.055a1.67 1.67 0 0 0-.168-.027L16.834.14a1.104 1.104 0 1 0-.843 1.892l5.198 5.077c.096.084.108.093.12.101.246.16.393.241.546.306l4.73 1.997c-.35 1.024-.562 2.24-.753 3.336-.603 3.462 1.867 7.053 2.697 8.142l.004 5.021h-.92c-.61 0-1.104.494-1.104 1.104V68.486c0 .61.494 1.104 1.104 1.104H43.89c.61 0 1.104-.494 1.104-1.104V40.852a1.104 1.104 0 1 0-2.208 0v26.53H28.718V33.9h14.068v3.068a1.104 1.104 0 1 0 2.208 0v-9.852c0-.61-.494-1.105-1.104-1.105h-.463l.01-2.853c1.865-1.235 2.912-3.381 3.476-5.06zm5.86-3.155l1.212.509a.695.695 0 0 1 .376.381c.071.173.07.364-.003.536l-.615 1.456a.696.696 0 0 1-.382.376.696.696 0 0 1-.536-.004l-1.291-.545zM21.634 4.455l-1.966-1.92 2.793.18zM41.836 21.54c-.37.187-.603.566-.605.98l-.012 3.377H30.741l-.004-5.292c0-.258-.092-.51-.258-.708-.03-.037-3.001-3.63-2.471-6.67.167-.957.352-2.018.617-2.853l1.997.844a1.102 1.102 0 0 0 2.1-.098l1.972-7.323a.811.811 0 0 1 .363-.523.787.787 0 0 1 .6-.096l.11.026a.787.787 0 0 1 .587.954l-.112.472-1.3 4.508a1.104 1.104 0 1 0 2.121.612l1.257-4.355a.787.787 0 0 1 .786-.26l.113.026a.786.786 0 0 1 .589.943l-1.157 3.907a1.104 1.104 0 1 0 2.118.627l1.07-3.617a.785.785 0 0 1 .82-.302l.112.026a.793.793 0 0 1 .587.953l-.167.706-.942 3a1.104 1.104 0 0 0 2.107.661l.954-3.038c.013-.052.018-.063.02-.075a.792.792 0 0 1 .953-.588l.113.027c.42.1.681.518.59.938l-1.633 5.905a1.098 1.098 0 0 0-.029.142c-.006.047-.699 4.749-3.49 6.164z" fill="#404f54" fill-rule="nonzero"/><path d="M28.718 31.692V28.22h14.068v3.472z" fill="#1caba0"/><path d="M47.5 15.757l.752-2.715 2.484 1.044-1.238 2.706-2.027-.856a8.99 8.99 0 0 0 .03-.179zM23.445 5.789l1.257-2.645 7.08 2.975-.771 2.865z" fill="#ff7f45"/><path d="M21.844 39.463v-5.137c0-1.654-1.346-3-3-3h-.116c-.523 0-1.015.134-1.444.37a2.997 2.997 0 0 0-2.348-1.134h-.115c-.507 0-.988.125-1.411.35a2.995 2.995 0 0 0-2.296-1.07H11a3 3 0 0 0-1.19.244 3 3 0 0 0-2.506-1.35h-.115c-1.654 0-3 1.345-3 3v2.89c-1.206-.13-2.146.102-2.859.698C-.215 36.616-.059 39.18.091 41.66c.205 3.385 3.223 6.225 4.386 7.2v1.899h-.58c-.61 0-1.104.494-1.104 1.104v16.622c0 .61.494 1.104 1.104 1.104h16.277c.61 0 1.104-.494 1.104-1.104V51.864c0-.61-.494-1.104-1.104-1.104h-.687v-3.016c2.717-2.75 2.408-7.658 2.357-8.28zm-2.775 27.918H5.001V58.65H19.07zm-1.4-20.961c-.248.21-.391.518-.391.843v3.497H6.685v-2.43c0-.35-.166-.678-.446-.887-1.045-.774-3.788-3.348-3.944-5.916-.106-1.752-.238-3.933.452-4.51.255-.214.758-.269 1.44-.162v1.5a1.104 1.104 0 1 0 2.209 0v-6.62c0-.436.355-.792.792-.792h.115c.437 0 .792.356.792.792v4.263a1.104 1.104 0 1 0 2.208 0v-3.532A.789.789 0 0 1 11 32.05h.115c.437 0 .792.355.792.791v3.157a1.104 1.104 0 1 0 2.208 0v-2.795a.787.787 0 0 1 .706-.432h.116c.436 0 .791.355.791.791v2.979a1.104 1.104 0 1 0 2.209 0v-2.215c0-.437.355-.792.792-.792h.115c.437 0 .792.355.792.792v5.186c0 .035.002.07.005.106.127 1.32.021 5.115-1.971 6.802z" fill="#404f54" fill-rule="nonzero"/><path d="M19.07 56.44H5v-3.472H19.07z" fill="#f4fafa"/></g></svg>