<svg height="28" viewBox="0 0 144 28" width="144" xmlns="http://www.w3.org/2000/svg"><path d="M136.353 0h6.691c.528 0 .956.447.956.999v6.99c0 .551-.428.998-.956.998h-6.691c-.528 0-.956-.447-.956-.998V.999c0-.552.428-.999.956-.999zm1.912 3.357h1.287V7.49h1.102V1.498h-.894c0 .052-.014.132-.042.24-.048.179-.118.322-.211.43a.985.985 0 0 1-.529.313 4.371 4.371 0 0 1-.713.075zM0 27.461V8.426h13.472v3.694h-8.93v3.45h8.337v3.614H4.542v4.53h9.73v3.747zm16.673 0V8.399h4.542v15.045h7.123v4.017zm13.988 0V8.426h13.473v3.694h-8.93v3.45h8.336v3.614h-8.336v4.53h9.73v3.747zM60.832 8.426h6.633v19.035h-4.362l.284-13.562.052-1.914-.155.674c-.232 1.078-.258 1.213-.464 2.022l-3.433 12.78h-3.923L52.16 15.22l-.8-3.398c.078 1.51.078 1.833.155 3.64l.232 11.998h-4.413V8.426h6.659l2.787 10.677.645 3.046c.259-1.32.284-1.456.49-2.345zm10.17 19.035V8.426h13.471v3.694h-8.93v3.45h8.337v3.614h-8.336v4.53h9.73v3.747zm16.646 0V8.426h4.465l3.949 7.01c1.445 2.67 1.884 3.532 2.736 5.204L98.59 8.426h4.362v19.035h-4.465l-3.407-6.013c-1.652-2.83-1.961-3.424-3.2-5.958l.129 11.97zm17.266-15.287V8.399h14.04v3.775h-4.723V27.46h-4.568V12.174zm30.197 13.83c-1.78 1.538-3.845 1.996-5.73 1.996-5.78 0-9.059-4.637-9.059-10.138 0-5.15 3.123-10.03 8.982-10.03a9.71 9.71 0 0 1 3.33.567c5.574 2.022 5.936 8.358 5.936 9.652 0 3.29-1.446 6.255-3.459 7.954zm-1.11-7.63c.078-1.994-.438-4.017-1.47-5.176-.775-.863-1.962-1.402-3.201-1.402-2.762 0-4.517 2.535-4.517 5.986 0 4.53 2.426 6.2 4.568 6.2 2.168 0 4.491-1.617 4.62-5.607z" fill="#fff" fill-rule="evenodd"/></svg>